<?xml version="1.0" standalone="no"?>
<!DOCTYPE svg PUBLIC "-//W3C//DTD SVG 20010904//EN"
 "http://www.w3.org/TR/2001/REC-SVG-20010904/DTD/svg10.dtd">
<svg version="1.0" xmlns="http://www.w3.org/2000/svg"
 width="512.000000pt" height="512.000000pt" viewBox="0 0 512.000000 512.000000"
 preserveAspectRatio="xMidYMid meet">

<g transform="translate(0.000000,512.000000) scale(0.100000,-0.100000)"
fill="#000000" stroke="none">
<path d="M2330 4759 c-390 -40 -774 -191 -1100 -432 -122 -91 -346 -315 -437
-437 -437 -590 -558 -1335 -327 -2029 258 -777 923 -1339 1749 -1478 168 -28
545 -25 712 5 243 44 431 109 652 223 618 320 1048 920 1157 1615 22 141 29
407 15 545 -53 513 -261 964 -610 1323 -132 135 -228 215 -372 311 -411 275
-938 405 -1439 354z m380 -350 c447 -40 840 -222 1149 -531 665 -663 736
-1688 167 -2443 -77 -103 -238 -264 -341 -341 -384 -289 -852 -422 -1314 -374
-647 68 -1206 460 -1485 1040 -207 431 -239 925 -91 1377 210 638 741 1112
1395 1243 184 36 343 46 520 29z"/>
<path d="M2885 3530 c-26 -12 -196 -177 -466 -447 -401 -402 -427 -431 -438
-476 -24 -100 -36 -86 442 -565 238 -238 444 -440 459 -448 35 -18 121 -18
157 0 44 23 88 80 96 124 16 94 15 96 -376 487 l-359 360 359 360 c303 304
361 366 371 402 43 143 -110 270 -245 203z"/>
</g>
</svg>
