<?xml version="1.0" standalone="no"?>
<!DOCTYPE svg PUBLIC "-//W3C//DTD SVG 20010904//EN"
 "http://www.w3.org/TR/2001/REC-SVG-20010904/DTD/svg10.dtd">
<svg version="1.0" xmlns="http://www.w3.org/2000/svg"
 width="100.000000pt" height="49.000000pt" viewBox="0 0 100.000000 49.000000"
 preserveAspectRatio="xMidYMid meet">

<g transform="translate(0.000000,49.000000) scale(0.100000,-0.100000)"
fill="#000000" stroke="none">
<path d="M457 483 c-17 -16 -3 -45 44 -97 66 -72 80 -76 136 -36 77 56 166 47
216 -21 63 -87 -4 -239 -106 -239 -53 0 -98 32 -199 144 -180 200 -218 225
-323 211 -67 -8 -109 -34 -145 -91 -92 -146 3 -324 175 -324 49 0 126 27 140
49 4 8 25 -5 57 -34 52 -47 80 -54 86 -22 5 26 -98 127 -129 127 -13 0 -44
-14 -69 -30 -118 -78 -259 16 -228 152 11 50 39 85 85 104 82 35 136 3 288
-166 59 -66 128 -133 153 -150 43 -29 53 -31 109 -28 116 7 193 91 193 210 0
168 -153 255 -313 177 l-45 -22 -52 46 c-53 48 -61 52 -73 40z"/>
</g>
</svg>
